{
  "accessors": [
    {
      "bufferView": 1,
      "componentType": 5126,
      "count": 4765,
      "max": [
        0.64773404598236084,
        2.3332474231719971,
        2.8848021030426025
      ],
      "min": [
        -0.64773404598236084,
        -7.9221796989440918,
        -0.90203207731246948
      ],
      "type": "VEC3"
    },
    {
      "bufferView": 1,
      "byteOffset": 57180,
      "componentType": 5126,
      "count": 4765,
      "max": [
        1,
        1,
        1
      ],
      "min": [
        -1,
        -0.9999992847442627,
        -1
      ],
      "type": "VEC3"
    },
    {
      "bufferView": 0,
      "componentType": 5125,
      "count": 7569,
      "max": [
        4764
      ],
      "min": [
        0
      ],
      "type": "SCALAR"
    },
    {
      "bufferView": 1,
      "byteOffset": 114360,
      "componentType": 5126,
      "count": 1376,
      "max": [
        0.64772576093673706,
        2.3971552848815918,
        2.7636878490447998
      ],
      "min": [
        -0.64772576093673706,
        -6.4212503433227539,
        -0.602275550365448
      ],
      "type": "VEC3"
    },
    {
      "bufferView": 1,
      "byteOffset": 130872,
      "componentType": 5126,
      "count": 1376,
      "max": [
        1,
        1,
        1
      ],
      "min": [
        -1,
        -1,
        -1
      ],
      "type": "VEC3"
    },
    {
      "bufferView": 0,
      "byteOffset": 30276,
      "componentType": 5125,
      "count": 2106,
      "max": [
        1375
      ],
      "min": [
        0
      ],
      "type": "SCALAR"
    },
    {
      "bufferView": 1,
      "byteOffset": 147384,
      "componentType": 5126,
      "count": 292,
      "max": [
        0.61485940217971802,
        2.3536214828491211,
        2.5612115859985352
      ],
      "min": [
        -0.61485940217971802,
        -7.6159486770629883,
        1.0709438323974609
      ],
      "type": "VEC3"
    },
    {
      "bufferView": 1,
      "byteOffset": 150888,
      "componentType": 5126,
      "count": 292,
      "max": [
        1,
        1,
        0.99968057870864868
      ],
      "min": [
        -1,
        -1,
        -0.24411261081695557
      ],
      "type": "VEC3"
    },
    {
      "bufferView": 0,
      "byteOffset": 38700,
      "componentType": 5125,
      "count": 462,
      "max": [
        291
      ],
      "min": [
        0
      ],
      "type": "SCALAR"
    },
    {
      "bufferView": 1,
      "byteOffset": 154392,
      "componentType": 5126,
      "count": 2118,
      "max": [
        0.53441232442855835,
        1.8288911581039429,
        1.2379542589187622
      ],
      "min": [
        -0.53441232442855835,
        -5.4311399459838867,
        -0.50750976800918579
      ],
      "type": "VEC3"
    },
    {
      "bufferView": 1,
      "byteOffset": 179808,
      "componentType": 5126,
      "count": 2118,
      "max": [
        1,
        1,
        1
      ],
      "min": [
        -1,
        -1,
        -1
      ],
      "type": "VEC3"
    },
    {
      "bufferView": 0,
      "byteOffset": 40548,
      "componentType": 5125,
      "count": 3318,
      "max": [
        2117
      ],
      "min": [
        0
      ],
      "type": "SCALAR"
    },
    {
      "bufferView": 1,
      "byteOffset": 205224,
      "componentType": 5126,
      "count": 106,
      "max": [
        0.46356302499771118,
        -1.1657243967056274,
        0.74204957485198975
      ],
      "min": [
        -0.46356302499771118,
        -5.2012691497802734,
        0.033080123364925385
      ],
      "type": "VEC3"
    },
    {
      "bufferView": 1,
      "byteOffset": 206496,
      "componentType": 5126,
      "count": 106,
      "max": [
        0.99319356679916382,
        1,
        0.12355177104473114
      ],
      "min": [
        -0.99319356679916382,
        -1,
        -0.61452054977416992
      ],
      "type": "VEC3"
    },
    {
      "bufferView": 0,
      "byteOffset": 53820,
      "componentType": 5125,
      "count": 186,
      "max": [
        105
      ],
      "min": [
        0
      ],
      "type": "SCALAR"
    }
  ],
  "asset": {
    "extras": {
      "author": "Wawann (https://sketchfab.com/yolowawan55)",
      "license": "CC-BY-4.0 (http://creativecommons.org/licenses/by/4.0/)",
      "source": "https://sketchfab.com/models/e20931aa62e9470b88f21e7108f8ae60",
      "title": "SciFi Rifle (low-poly)"
    },
    "generator": "Sketchfab-3.43.2",
    "version": "2.0"
  },
  "bufferViews": [
    {
      "buffer": 0,
      "byteLength": 54564,
      "byteOffset": 0,
      "name": "floatBufferViews",
      "target": 34963
    },
    {
      "buffer": 0,
      "byteLength": 207768,
      "byteOffset": 54564,
      "byteStride": 12,
      "name": "floatBufferViews",
      "target": 34962
    }
  ],
  "buffers": [
    {
      "byteLength": 262332,
      "uri": "scene.bin"
    }
  ],
  "materials": [
    {
      "doubleSided": true,
      "emissiveFactor": [
        0,
        0,
        0
      ],
      "name": "Material",
      "pbrMetallicRoughness": {
        "baseColorFactor": [
          0.0141391344,
          0.011958396899999999,
          0.011958396899999999,
          1
        ],
        "metallicFactor": 0,
        "roughnessFactor": 0.077553353700000049
      }
    },
    {
      "doubleSided": true,
      "emissiveFactor": [
        0,
        0,
        0
      ],
      "name": "Material.002",
      "pbrMetallicRoughness": {
        "baseColorFactor": [
          0.0017123756999999999,
          0.0016820680999999999,
          0.0016820680999999999,
          1
        ],
        "metallicFactor": 0,
        "roughnessFactor": 0.2177972561
      }
    },
    {
      "doubleSided": true,
      "emissiveFactor": [
        1,
        0.3301215626093596,
        0
      ],
      "name": "Material.001",
      "pbrMetallicRoughness": {
        "baseColorFactor": [
          0.80000000000000004,
          0.80000000000000004,
          0.80000000000000004,
          1
        ],
        "metallicFactor": 0,
        "roughnessFactor": 0.95770514949999996
      }
    }
  ],
  "meshes": [
    {
      "name": "Cube_Material_0",
      "primitives": [
        {
          "attributes": {
            "NORMAL": 1,
            "POSITION": 0
          },
          "indices": 2,
          "material": 0,
          "mode": 4
        }
      ]
    },
    {
      "name": "Cube_Material.002_0",
      "primitives": [
        {
          "attributes": {
            "NORMAL": 4,
            "POSITION": 3
          },
          "indices": 5,
          "material": 1,
          "mode": 4
        }
      ]
    },
    {
      "name": "Cube_Material.001_0",
      "primitives": [
        {
          "attributes": {
            "NORMAL": 7,
            "POSITION": 6
          },
          "indices": 8,
          "material": 2,
          "mode": 4
        }
      ]
    },
    {
      "name": "Cube.001_Material_0",
      "primitives": [
        {
          "attributes": {
            "NORMAL": 10,
            "POSITION": 9
          },
          "indices": 11,
          "material": 0,
          "mode": 4
        }
      ]
    },
    {
      "name": "Cube.001_Material.001_0",
      "primitives": [
        {
          "attributes": {
            "NORMAL": 13,
            "POSITION": 12
          },
          "indices": 14,
          "material": 2,
          "mode": 4
        }
      ]
    }
  ],
  "nodes": [
    {
      "children": [
        1
      ],
      "name": "RootNode (gltf orientation matrix)",
      "rotation": [
        -0.70710678118654746,
        -0,
        -0,
        0.70710678118654757
      ]
    },
    {
      "children": [
        2
      ],
      "name": "RootNode (model correction matrix)"
    },
    {
      "children": [
        3
      ],
      "matrix": [
        1,
        0,
        0,
        0,
        0,
        0,
        1,
        0,
        0,
        -1,
        0,
        0,
        0,
        0,
        0,
        1
      ],
      "name": "111f2c2a3a244742997fffd611fd2c0b.fbx"
    },
    {
      "children": [
        4,
        8,
        11,
        14
      ],
      "name": "RootNode"
    },
    {
      "children": [
        5,
        6,
        7
      ],
      "matrix": [
        100,
        0,
        0,
        0,
        0,
        -1.6292067939183141e-05,
        -99.999999999998678,
        0,
        0,
        99.999999999998678,
        -1.6292067939183141e-05,
        0,
        0,
        118.08501434326172,
        -306.95162963867188,
        1
      ],
      "name": "Cube"
    },
    {
      "mesh": 0,
      "name": "Cube_Material_0"
    },
    {
      "mesh": 1,
      "name": "Cube_Material.002_0"
    },
    {
      "mesh": 2,
      "name": "Cube_Material.001_0"
    },
    {
      "children": [
        9,
        10
      ],
      "matrix": [
        100,
        0,
        0,
        0,
        0,
        -1.6292067939183141e-05,
        -99.999999999998678,
        0,
        0,
        99.999999999998678,
        -1.6292067939183141e-05,
        0,
        0,
        184.72386169433594,
        13.611292839050293,
        1
      ],
      "name": "Cube.001"
    },
    {
      "mesh": 3,
      "name": "Cube.001_Material_0"
    },
    {
      "mesh": 4,
      "name": "Cube.001_Material.001_0"
    },
    {
      "children": [
        12
      ],
      "matrix": [
        -29.08647719990347,
        -5.5189064575668629,
        -95.517119101714371,
        0,
        56.639309131094492,
        79.467234285632031,
        -21.839123978419661,
        0,
        77.110087759933748,
        -60.452463565620441,
        -19.988346967737169,
        0,
        407.62454223632812,
        590.38623046875,
        -100.54539489746094,
        1
      ],
      "name": "Lamp"
    },
    {
      "children": [
        13
      ],
      "matrix": [
        1,
        0,
        0,
        0,
        0,
        2.2204460492503131e-16,
        1,
        0,
        0,
        -1,
        2.2204460492503131e-16,
        0,
        0,
        0,
        0,
        1
      ],
      "name": ""
    },
    {
      "name": ""
    },
    {
      "children": [
        15
      ],
      "matrix": [
        -65.155832803290963,
        -44.527135765708579,
        -61.417030473735487,
        0,
        -32.40134137821245,
        89.539574512336159,
        -30.542088974418615,
        0,
        68.592054721299746,
        -1.0718647115348782e-05,
        -72.767633623962695,
        0,
        748.1131591796875,
        534.36651611328125,
        650.76397705078125,
        1
      ],
      "name": "Camera"
    },
    {
      "name": ""
    }
  ],
  "scene": 0,
  "scenes": [
    {
      "name": "OSG_Scene",
      "nodes": [
        0
      ]
    }
  ]
}

